<?xml version="1.0" encoding="iso-8859-1"?>
<!-- Generator: Adobe Illustrator 19.0.0, SVG Export Plug-In . SVG Version: 6.00 Build 0)  -->
<svg version="1.1" id="Layer_1" xmlns="http://www.w3.org/2000/svg" xmlns:xlink="http://www.w3.org/1999/xlink" x="0px" y="0px"
	 viewBox="0 0 512 512" style="enable-background:new 0 0 512 512;" xml:space="preserve">
<circle style="fill:#C1D354;" cx="256" cy="256" r="256"/>
<path style="fill:#9DB138;" d="M503.616,321.124L337.441,154.949l-15.36-15.36l-12.255-7.058l-8.148,7.135l-12.767-12.769h-14.154
	l-3.507,10.353c-3.146,0.584-6.257,1.426-9.216,2.486l-8.23-7.204l-12.216,7.058l2.122,10.752c-1.208,1.019-2.378,2.079-3.512,3.215
	c-1.132,1.132-2.191,2.268-3.218,3.512l-10.749-2.122l-7.06,12.214l7.209,8.23c-1.065,2.957-1.866,6.034-2.452,9.18l-1.147,0.387
	l-41.06-41.091c-0.038-0.069-0.108-0.148-0.187-0.182c-0.366-0.402-0.765-0.765-1.167-1.096c-3.625-3.069-8.195-4.754-12.91-4.754
	h-38.874c-2.01-3.077-5.486-5.12-9.434-5.12c-6.218,0-11.264,5.043-11.264,11.264c0,0.758,0.079,1.495,0.225,2.212
	c0.036,0.182,0.105,0.351,0.154,0.532c0.125,0.52,0.271,1.039,0.474,1.531c0.09,0.218,0.215,0.422,0.32,0.632
	c0.205,0.422,0.407,0.837,0.66,1.224c0.161,0.238,0.34,0.448,0.512,0.673c0.197,0.253,0.366,0.527,0.581,0.765
	c0.102,0.092,0.197,0.197,0.294,0.294c0.059,0.056,0.118,0.12,0.174,0.177c0.102,0.1,0.2,0.197,0.3,0.294l74.496,74.493l0.013,0.015
	l2.071,12.859l11.118,69.158l-1.608,0.366c-4.429,0.991-8.415,3.436-11.226,6.945c-2.821,3.512-4.39,7.939-4.39,12.431v0.555
	c0,5.302,2.081,10.276,5.811,14.003l12.803,12.805c0,0,0,0,0,0.036l0.013,0.013c-2.365,3.046-3.82,6.856-3.82,11.036
	c0,4.964,2.012,9.5,5.304,12.759L324.91,502.533C412.142,478.198,480.591,408.888,503.616,321.124z"/>
<path style="fill:#34495E;" d="M350.108,202.237v-14.124l-10.363-3.533v0.013c-0.586-3.159-1.4-6.236-2.468-9.201l7.201-8.238
	l-7.055-12.227l-10.729,2.122l0.031,0.061c-1.044-1.229-2.13-2.409-3.279-3.553c-1.129-1.137-2.317-2.232-3.54-3.264l0.064,0.028
	l2.109-10.739l-12.229-7.058l-8.241,7.199c-2.962-1.055-6.031-1.882-9.193-2.458h0.015l-3.533-10.358h-14.134l-3.533,10.358h0.008
	c-3.151,0.576-6.239,1.405-9.193,2.458l-8.243-7.199l-12.227,7.058l2.125,10.739l0.056-0.028c-1.224,1.032-2.417,2.127-3.546,3.264
	c-1.144,1.144-2.235,2.324-3.274,3.553l0.036-0.061l-10.737-2.115l-7.063,12.219l7.201,8.238c-1.055,2.964-1.874,6.039-2.458,9.193
	v-0.008l-10.36,3.533v14.124l10.36,3.54v-0.008c0.584,3.154,1.403,6.231,2.458,9.18l-7.201,8.246l7.063,12.234l10.737-2.122
	l-0.036-0.061c1.039,1.236,2.135,2.417,3.274,3.561c1.129,1.124,2.324,2.22,3.535,3.254l-2.171,10.719l12.234,7.058l8.236-7.199
	c2.954,1.055,6.031,1.874,9.185,2.458l0,0l3.533,10.353h14.134l3.533-10.353h-0.008c3.159-0.584,6.226-1.405,9.185-2.458
	l8.241,7.199l12.229-7.058l-2.109-10.747l-0.064,0.028c1.224-1.032,2.409-2.13,3.54-3.254c1.149-1.144,2.235-2.324,3.277-3.561
	l-0.028,0.061l10.729,2.122l7.063-12.234l-7.206-8.246c1.068-2.949,1.882-6.026,2.468-9.18v0.008L350.108,202.237z M281.83,212.042
	c-9.313,0-16.855-7.544-16.855-16.87c0-9.306,7.542-16.85,16.855-16.85c9.308,0,16.863,7.542,16.863,16.85
	C298.693,204.498,291.139,212.042,281.83,212.042z"/>
<path style="fill:#FFFFFF;" d="M281.83,161.684c-18.499,0-33.498,14.994-33.498,33.487c0,18.506,15.002,33.508,33.498,33.508
	c18.501,0,33.498-15.002,33.498-33.508C315.328,176.678,300.329,161.684,281.83,161.684z M281.83,212.042
	c-9.313,0-16.855-7.544-16.855-16.87c0-9.306,7.542-16.85,16.855-16.85c9.308,0,16.863,7.542,16.863,16.85
	C298.693,204.498,291.139,212.042,281.83,212.042z"/>
<path style="fill:#34495E;" d="M130.391,143.98c0,6.2-5.036,11.244-11.244,11.244c-6.216,0-11.261-5.043-11.261-11.244
	c0-6.223,5.046-11.259,11.261-11.259C125.356,132.721,130.391,137.759,130.391,143.98z"/>
<g>
	<path style="fill:#FF8E31;" d="M368.714,348.979H201.902c-5.289,0-10.276-2.066-14.031-5.814
		c-3.743-3.758-5.811-8.737-5.811-14.039v-0.532c0-4.495,1.551-8.919,4.378-12.439c2.824-3.51,6.81-5.975,11.213-6.953
		l139.784-30.74c3.315-0.737,6.592,1.362,7.314,4.669c0.727,3.308-1.365,6.579-4.677,7.316l-139.786,30.748
		c-1.708,0.374-3.182,1.285-4.283,2.655c-1.093,1.354-1.672,3.008-1.672,4.744v0.532c0,2.022,0.786,3.924,2.22,5.353
		c1.431,1.434,3.341,2.225,5.353,2.225h166.815c3.395,0,6.139,2.747,6.139,6.136C374.856,346.227,372.109,348.979,368.714,348.979z"
		/>
	<path style="fill:#FF8E31;" d="M206.234,319.734c-2.959,0-5.568-2.15-6.047-5.174l-25.234-158.065
		c-0.202-1.257-0.809-3.085-2.563-4.572c-1.769-1.503-3.638-1.818-4.928-1.818h-48.315c-3.392,0-6.139-2.739-6.139-6.131
		c0-3.384,2.747-6.144,6.139-6.144h48.315c4.716,0,9.295,1.692,12.892,4.754c3.584,3.054,5.98,7.309,6.717,11.981l25.234,158.065
		c0.532,3.351-1.746,6.497-5.094,7.03C206.881,319.716,206.564,319.734,206.234,319.734z"/>
</g>
<rect x="207.693" y="336.691" style="fill:#5D6D7E;" width="14.446" height="28.887"/>
<path style="fill:#34495E;" d="M232.968,367.03c0,9.976-8.095,18.056-18.053,18.056c-9.974,0-18.056-8.077-18.056-18.056
	c0-9.974,8.084-18.051,18.056-18.051C224.873,348.979,232.968,357.056,232.968,367.03z"/>
<path style="fill:#FFFFFF;" d="M223.933,367.03c0,4.992-4.04,9.021-9.016,9.021c-4.987,0-9.032-4.029-9.032-9.021
	c0-4.979,4.047-9.019,9.032-9.019C219.894,358.011,223.933,362.051,223.933,367.03z"/>
<rect x="349.594" y="336.691" style="fill:#5D6D7E;" width="14.444" height="28.887"/>
<circle style="fill:#34495E;" cx="356.787" cy="367.027" r="18.048"/>
<path style="fill:#FFFFFF;" d="M365.834,367.03c0,4.992-4.045,9.021-9.034,9.021c-4.982,0-9.021-4.029-9.021-9.021
	c0-4.979,4.04-9.019,9.021-9.019C361.789,358.011,365.834,362.051,365.834,367.03z"/>
<path style="fill:#F28124;" d="M180.989,195.172l18.281,113.687l0.916,5.704l1.029,6.426v0.008l167.972-36.951
	c1.551-0.335,2.99-1.193,4.068-2.527c1.078-1.334,1.6-2.934,1.6-4.524v-74.596c0-1.846-0.704-3.702-2.117-5.105
	c-1.403-1.413-3.254-2.122-5.105-2.122L180.989,195.172L180.989,195.172z"/>
<path style="fill:#FF9D4D;" d="M367.631,195.172H180.989l7.148,44.526h186.716v-37.299c0-1.846-0.704-3.702-2.117-5.105
	C371.336,195.881,369.482,195.172,367.631,195.172z"/>
<g>
</g>
<g>
</g>
<g>
</g>
<g>
</g>
<g>
</g>
<g>
</g>
<g>
</g>
<g>
</g>
<g>
</g>
<g>
</g>
<g>
</g>
<g>
</g>
<g>
</g>
<g>
</g>
<g>
</g>
</svg>
