<svg width="188" height="316" viewBox="0 0 188 316" fill="none" xmlns="http://www.w3.org/2000/svg">
    <path d="M65.7138 53.876V19.4334H107.81C113.047 19.4334 117.277 15.2036 117.277 9.9667C117.277 4.72981 113.047 0.500009 107.81 0.500009H9.92076C4.68387 0.500009 0.454071 4.72981 0.454071 9.9667C0.454071 15.2036 4.68387 19.4334 9.92076 19.4334H46.579V129.005V132.631V137.062V160.628C36.9109 164.455 30.2641 173.72 30.2641 184.597C30.2641 198.898 41.9464 210.379 56.0457 210.379C70.3464 210.379 81.8273 198.696 81.8273 184.597C81.8273 173.72 74.9791 164.455 65.5124 160.628V144.716C83.6401 148.946 97.3366 165.261 97.3366 184.798C97.3366 207.559 78.806 226.089 56.0457 226.089C50.406 226.089 45.7733 230.722 45.7733 236.362C45.7733 242.001 50.406 246.634 56.0457 246.634C90.0855 246.634 117.881 218.838 117.881 184.798C117.881 153.981 95.121 128.401 65.5124 123.768V108.259C103.581 112.892 133.189 145.32 133.189 184.798C133.189 227.298 98.5451 261.942 56.0457 261.942C50.8088 261.942 46.579 266.172 46.579 271.408C46.579 276.645 50.8088 280.875 56.0457 280.875C109.019 280.875 152.123 237.772 152.123 184.798C152.123 135.048 114.054 93.9584 65.5124 89.3258V73.2122C122.917 78.0463 168.236 126.185 168.236 184.798C168.236 246.634 117.881 296.989 56.0457 296.989C50.8088 296.989 46.579 301.218 46.579 306.455C46.579 311.692 50.8088 315.922 56.0457 315.922C128.355 315.922 187.169 257.108 187.169 184.798C187.169 115.309 133.391 58.7101 65.7138 53.876Z" fill="url(#paint0_linear_1_3)"/>
    <defs>
    <linearGradient id="paint0_linear_1_3" x1="0.454071" y1="158.211" x2="187.169" y2="158.211" gradientUnits="userSpaceOnUse">
    <stop offset="0.2917" stop-color="#4A9CD5"/>
    <stop offset="1" stop-color="#224192"/>
    </linearGradient>
    </defs>
</svg>
