<svg xmlns="http://www.w3.org/2000/svg" xmlns:xlink="http://www.w3.org/1999/xlink" width="500" zoomAndPan="magnify" viewBox="0 0 375 374.999991" height="500" preserveAspectRatio="xMidYMid meet" version="1.0"><defs><g/><clipPath id="07f38b7fff"><path d="M 60 84 L 295 84 L 295 318 L 60 318 Z M 60 84 " clip-rule="nonzero"/></clipPath><clipPath id="c4a39a11b7"><path d="M 12.007812 205.097656 L 155.515625 53.84375 L 325.269531 214.902344 L 181.761719 366.15625 Z M 12.007812 205.097656 " clip-rule="nonzero"/></clipPath><clipPath id="0442435a2a"><path d="M 12.007812 205.097656 L 155.515625 53.84375 L 325.269531 214.902344 L 181.761719 366.15625 Z M 12.007812 205.097656 " clip-rule="nonzero"/></clipPath><clipPath id="f39042041d"><path d="M 12.007812 205.097656 L 155.515625 53.84375 L 325.269531 214.902344 L 181.761719 366.15625 Z M 12.007812 205.097656 " clip-rule="nonzero"/></clipPath><clipPath id="e1203b41ad"><path d="M 194.441406 151 L 297.941406 151 L 297.941406 187.5 L 194.441406 187.5 Z M 194.441406 151 " clip-rule="nonzero"/></clipPath><clipPath id="1430e98b09"><path d="M 194.441406 37.5 L 231 37.5 L 231 187.5 L 194.441406 187.5 Z M 194.441406 37.5 " clip-rule="nonzero"/></clipPath><clipPath id="94d27f604f"><path d="M 140 165 L 223 165 L 223 248 L 140 248 Z M 140 165 " clip-rule="nonzero"/></clipPath><clipPath id="3144638e9c"><path d="M 127.167969 213.1875 L 188.15625 152.199219 L 227.933594 191.972656 L 166.945312 252.960938 Z M 127.167969 213.1875 " clip-rule="nonzero"/></clipPath><clipPath id="e20bd70c7f"><path d="M 127.167969 213.1875 L 188.15625 152.199219 L 227.933594 191.972656 L 166.945312 252.960938 Z M 127.167969 213.1875 " clip-rule="nonzero"/></clipPath></defs><g clip-path="url(#07f38b7fff)"><g clip-path="url(#c4a39a11b7)"><g clip-path="url(#0442435a2a)"><g clip-path="url(#f39042041d)"><path fill="#000000" d="M 261.996094 281.304688 C 217.675781 328.019531 143.609375 329.957031 96.886719 285.625 C 50.164062 241.296875 48.207031 167.230469 92.527344 120.519531 C 114.867188 96.976562 146.300781 83.714844 178.765625 84.136719 L 187.5625 84.25 L 186.785156 145.839844 L 177.980469 145.730469 C 162.40625 145.527344 147.929688 151.632812 137.21875 162.921875 C 116.273438 185 117.199219 220 139.277344 240.945312 C 151.21875 252.277344 167.488281 257.644531 183.90625 255.671875 L 186.007812 273.148438 C 164.371094 275.742188 142.921875 268.660156 127.164062 253.710938 C 98.046875 226.082031 96.828125 179.921875 124.449219 150.808594 C 136.535156 138.070312 152.25 130.335938 169.398438 128.53125 L 169.738281 102.011719 C 145.347656 103.882812 122.242188 114.773438 105.296875 132.636719 C 67.65625 172.308594 69.316406 235.207031 108.996094 272.859375 C 148.679688 310.507812 211.585938 308.863281 249.226562 269.191406 C 263.59375 254.042969 272.691406 235.128906 275.523438 214.496094 C 276.285156 208.96875 276.574219 203.324219 276.394531 197.707031 L 293.980469 197.136719 C 294.199219 203.738281 293.855469 210.386719 292.957031 216.894531 C 289.625 241.195312 278.917969 263.46875 261.996094 281.304688 " fill-opacity="1" fill-rule="nonzero"/></g></g></g></g><g clip-path="url(#e1203b41ad)"><path fill="#7ed957" d="M 297.925781 187.496094 L 230.21875 187.496094 L 194.460938 151.714844 L 262.167969 151.714844 Z M 297.925781 187.496094 " fill-opacity="1" fill-rule="evenodd"/></g><g clip-path="url(#1430e98b09)"><path fill="#c1ff72" d="M 230.21875 73.277344 L 230.21875 187.496094 L 194.460938 151.714844 L 194.460938 37.5 Z M 230.21875 73.277344 " fill-opacity="1" fill-rule="evenodd"/></g><g clip-path="url(#94d27f604f)"><g clip-path="url(#3144638e9c)"><g clip-path="url(#e20bd70c7f)"><path fill="#d9d9d9" d="M 203.640625 173.601562 C 191.324219 166.394531 181.957031 162.917969 173.332031 167.851562 C 172.015625 168.609375 170.902344 169.445312 169.933594 170.414062 C 167.886719 172.460938 166.859375 174.726562 165.859375 176.917969 C 164.945312 178.9375 163.90625 181.179688 161.84375 183.652344 L 160.195312 185.398438 C 160.203125 185.40625 154.324219 189.78125 151.871094 190.894531 C 149.6875 191.886719 147.429688 192.914062 145.390625 194.949219 C 144.417969 195.921875 143.578125 197.035156 142.828125 198.355469 C 137.886719 206.988281 141.363281 216.351562 148.578125 228.660156 C 156.929688 242.925781 165.328125 249.6875 171.617188 247.21875 C 172.644531 246.816406 173.550781 246.226562 174.320312 245.460938 C 178.214844 241.566406 177.691406 233.882812 177.308594 228.269531 L 177.195312 226.730469 C 176.828125 222.097656 179.863281 216.195312 185.519531 210.542969 C 191.667969 204.394531 196.660156 201.828125 201.707031 202.226562 L 203.246094 202.339844 C 208.855469 202.722656 216.53125 203.242188 220.429688 199.34375 C 221.199219 198.574219 221.789062 197.667969 222.1875 196.648438 C 224.65625 190.359375 217.894531 181.960938 203.640625 173.601562 Z M 167.566406 211.203125 L 164.640625 214.125 L 167.480469 216.964844 C 168.519531 218.003906 168.484375 219.796875 167.402344 220.875 C 166.320312 221.960938 164.527344 221.996094 163.488281 220.957031 L 160.648438 218.121094 L 157.902344 220.867188 C 156.867188 221.902344 155.074219 221.863281 153.988281 220.777344 C 152.902344 219.691406 152.863281 217.898438 153.902344 216.863281 L 156.648438 214.117188 L 153.808594 211.277344 C 152.769531 210.238281 152.804688 208.445312 153.886719 207.363281 C 154.96875 206.28125 156.761719 206.246094 157.800781 207.285156 L 160.640625 210.125 L 163.5625 207.199219 C 164.597656 206.164062 166.390625 206.203125 167.476562 207.289062 C 168.5625 208.375 168.601562 210.167969 167.566406 211.203125 Z M 191.808594 193.921875 C 190.191406 195.542969 187.554688 195.539062 185.933594 193.917969 C 184.3125 192.296875 184.3125 189.660156 185.929688 188.042969 C 187.546875 186.425781 190.179688 186.429688 191.800781 188.050781 C 193.421875 189.671875 193.425781 192.304688 191.808594 193.921875 Z M 191.800781 182.964844 C 190.179688 184.582031 187.546875 184.578125 185.925781 182.957031 C 184.304688 181.335938 184.304688 178.703125 185.921875 177.085938 C 187.535156 175.46875 190.171875 175.472656 191.792969 177.089844 C 193.414062 178.710938 193.414062 181.347656 191.800781 182.964844 Z M 191.800781 182.964844 " fill-opacity="1" fill-rule="nonzero"/></g></g></g><g fill="#7ed957" fill-opacity="1"><g transform="translate(194.299831, 267.955163)"><g><path d="M 6.199219 -3.144531 C 5.769531 -3.050781 5.363281 -3.085938 4.976562 -3.265625 C 4.59375 -3.441406 4.257812 -3.71875 3.953125 -4.085938 C 3.652344 -4.4375 3.386719 -4.867188 3.171875 -5.378906 C 2.949219 -5.867188 2.785156 -6.386719 2.667969 -6.9375 C 2.554688 -7.464844 2.492188 -8.007812 2.496094 -8.546875 C 2.488281 -9.082031 2.554688 -9.582031 2.683594 -10.042969 C 2.8125 -10.488281 3.007812 -10.878906 3.285156 -11.195312 C 3.566406 -11.515625 3.917969 -11.730469 4.351562 -11.824219 C 4.664062 -11.890625 4.980469 -11.871094 5.277344 -11.792969 C 5.570312 -11.71875 5.832031 -11.617188 6.066406 -11.511719 C 6.324219 -11.359375 6.566406 -11.183594 6.800781 -10.992188 L 7.835938 -12.566406 C 7.484375 -12.820312 7.09375 -13.03125 6.671875 -13.21875 C 6.292969 -13.363281 5.855469 -13.480469 5.316406 -13.554688 C 4.78125 -13.632812 4.195312 -13.609375 3.546875 -13.472656 C 2.601562 -13.269531 1.8125 -12.910156 1.1875 -12.414062 C 0.566406 -11.917969 0.0664062 -11.324219 -0.277344 -10.664062 C -0.617188 -9.984375 -0.84375 -9.257812 -0.921875 -8.476562 C -1 -7.699219 -0.957031 -6.925781 -0.792969 -6.164062 C -0.628906 -5.398438 -0.355469 -4.679688 0.03125 -3.996094 C 0.421875 -3.316406 0.902344 -2.761719 1.488281 -2.296875 C 2.074219 -1.828125 2.769531 -1.492188 3.558594 -1.296875 C 4.328125 -1.097656 5.195312 -1.105469 6.140625 -1.308594 C 6.789062 -1.445312 7.332031 -1.648438 7.792969 -1.9375 C 8.253906 -2.210938 8.609375 -2.496094 8.894531 -2.796875 C 9.207031 -3.125 9.472656 -3.492188 9.683594 -3.886719 L 8.097656 -4.902344 C 7.96875 -4.613281 7.816406 -4.355469 7.640625 -4.125 C 7.476562 -3.917969 7.273438 -3.71875 7.039062 -3.53125 C 6.800781 -3.339844 6.515625 -3.210938 6.199219 -3.144531 Z M 6.199219 -3.144531 "/></g></g></g><g fill="#7ed957" fill-opacity="1"><g transform="translate(205.808181, 265.421735)"><g><path d="M 4.40625 -5.875 L 6.789062 -3.0625 L 10.023438 -4.519531 L 1.679688 -14.398438 L -1.566406 -12.933594 L 0.308594 -0.140625 L 2.738281 -1.234375 L 2.210938 -4.886719 Z M 3.210938 -7.289062 L 1.941406 -6.71875 L 1.570312 -9.230469 Z M 3.210938 -7.289062 "/></g></g></g><g fill="#7ed957" fill-opacity="1"><g transform="translate(216.986791, 260.237314)"><g><path d="M 3.816406 -6.136719 C 3.957031 -5.945312 3.984375 -5.710938 3.90625 -5.445312 C 3.839844 -5.164062 3.632812 -4.902344 3.277344 -4.640625 C 2.976562 -4.417969 2.636719 -4.25 2.265625 -4.1875 C 1.902344 -4.105469 1.53125 -4.066406 1.15625 -4.085938 C 0.769531 -4.09375 0.414062 -4.148438 0.0625 -4.226562 C -0.289062 -4.300781 -0.617188 -4.398438 -0.878906 -4.5 L -1.175781 -2.445312 C -0.542969 -2.277344 0.0234375 -2.191406 0.554688 -2.160156 C 1.082031 -2.128906 1.585938 -2.164062 2.0625 -2.261719 C 2.535156 -2.339844 2.980469 -2.476562 3.410156 -2.691406 C 3.855469 -2.894531 4.269531 -3.160156 4.691406 -3.472656 C 5.320312 -3.933594 5.78125 -4.425781 6.089844 -4.949219 C 6.398438 -5.472656 6.585938 -5.992188 6.664062 -6.511719 C 6.738281 -7.011719 6.726562 -7.484375 6.617188 -7.914062 C 6.511719 -8.34375 6.359375 -8.691406 6.15625 -8.964844 C 5.765625 -9.5 5.296875 -9.871094 4.761719 -10.085938 C 4.222656 -10.300781 3.65625 -10.40625 3.066406 -10.4375 C 2.460938 -10.453125 1.875 -10.417969 1.265625 -10.328125 C 0.667969 -10.222656 0.109375 -10.148438 -0.398438 -10.066406 C -0.921875 -9.976562 -1.351562 -9.933594 -1.738281 -9.941406 C -2.117188 -9.9375 -2.390625 -10.050781 -2.550781 -10.269531 C -2.683594 -10.445312 -2.722656 -10.671875 -2.640625 -10.960938 C -2.566406 -11.230469 -2.355469 -11.511719 -2 -11.777344 C -1.699219 -11.996094 -1.363281 -12.140625 -1 -12.21875 C -0.625 -12.285156 -0.253906 -12.328125 0.132812 -12.316406 C 0.503906 -12.296875 0.875 -12.253906 1.226562 -12.179688 C 1.578125 -12.101562 1.882812 -12.007812 2.160156 -11.917969 L 2.453125 -13.972656 C 1.222656 -14.265625 0.152344 -14.316406 -0.773438 -14.140625 C -1.695312 -13.960938 -2.582031 -13.5625 -3.414062 -12.945312 C -4.039062 -12.480469 -4.503906 -11.96875 -4.816406 -11.445312 C -5.125 -10.921875 -5.308594 -10.402344 -5.386719 -9.902344 C -5.464844 -9.382812 -5.433594 -8.917969 -5.328125 -8.488281 C -5.222656 -8.058594 -5.070312 -7.710938 -4.878906 -7.449219 C -4.476562 -6.90625 -4.007812 -6.53125 -3.472656 -6.316406 C -2.933594 -6.105469 -2.378906 -5.984375 -1.777344 -5.96875 C -1.1875 -5.941406 -0.597656 -5.972656 0 -6.078125 C 0.609375 -6.167969 1.15625 -6.257812 1.664062 -6.339844 C 2.171875 -6.421875 2.628906 -6.460938 3.003906 -6.464844 C 3.390625 -6.457031 3.65625 -6.355469 3.816406 -6.136719 Z M 3.816406 -6.136719 "/></g></g></g><g fill="#7ed957" fill-opacity="1"><g transform="translate(226.487415, 253.171747)"><g><path d="M -1.921875 -16.832031 L -4.234375 -14.144531 L -0.53125 -10.957031 L -2.855469 -8.257812 L -6.558594 -11.445312 L -8.875 -8.757812 L 0.554688 -0.644531 L 2.867188 -3.332031 L -1.507812 -7.09375 L 0.816406 -9.796875 L 5.191406 -6.03125 L 7.503906 -8.71875 Z M -1.921875 -16.832031 "/></g></g></g><g fill="#7ed957" fill-opacity="1"><g transform="translate(234.93536, 242.928902)"><g><path d="M 4.078125 -7.34375 L 1.535156 -8.25 L -0.195312 -5.136719 L -8.738281 -9.882812 L -10.460938 -6.78125 L 0.410156 -0.742188 Z M 4.078125 -7.34375 "/></g></g></g><g fill="#7ed957" fill-opacity="1"><g transform="translate(239.551135, 234.559503)"><g><path d="M 0.339844 -9.226562 L -1.097656 -5.019531 L -3.203125 -5.738281 L -2.050781 -9.109375 L -4.570312 -9.972656 L -5.722656 -6.601562 L -7.828125 -7.320312 L -6.53125 -11.109375 L -9.195312 -11.554688 L -11.496094 -4.824219 L 0.273438 -0.804688 L 2.714844 -7.949219 Z M 0.339844 -9.226562 "/></g></g></g><g fill="#7ed957" fill-opacity="1"><g transform="translate(242.946922, 224.512046)"><g><path d="M -1.757812 -7.011719 C -1.523438 -6.980469 -1.335938 -6.835938 -1.195312 -6.59375 C -1.039062 -6.351562 -1 -6.019531 -1.058594 -5.582031 C -1.105469 -5.214844 -1.222656 -4.851562 -1.433594 -4.539062 C -1.632812 -4.222656 -1.859375 -3.925781 -2.132812 -3.671875 C -2.40625 -3.398438 -2.695312 -3.179688 -2.992188 -2.980469 C -3.292969 -2.78125 -3.589844 -2.617188 -3.84375 -2.496094 L -2.574219 -0.855469 C -2.015625 -1.191406 -1.558594 -1.542969 -1.167969 -1.902344 C -0.777344 -2.261719 -0.453125 -2.644531 -0.195312 -3.054688 C 0.0820312 -3.445312 0.289062 -3.863281 0.4375 -4.324219 C 0.601562 -4.78125 0.699219 -5.265625 0.765625 -5.785156 C 0.871094 -6.558594 0.839844 -7.230469 0.675781 -7.816406 C 0.515625 -8.402344 0.273438 -8.898438 -0.046875 -9.316406 C -0.355469 -9.71875 -0.707031 -10.039062 -1.085938 -10.261719 C -1.46875 -10.480469 -1.828125 -10.613281 -2.164062 -10.660156 C -2.820312 -10.746094 -3.410156 -10.671875 -3.941406 -10.433594 C -4.46875 -10.195312 -4.941406 -9.863281 -5.371094 -9.457031 C -5.800781 -9.035156 -6.1875 -8.589844 -6.542969 -8.089844 C -6.882812 -7.589844 -7.21875 -7.136719 -7.515625 -6.714844 C -7.8125 -6.273438 -8.078125 -5.933594 -8.355469 -5.660156 C -8.613281 -5.386719 -8.886719 -5.269531 -9.15625 -5.304688 C -9.375 -5.332031 -9.5625 -5.460938 -9.714844 -5.722656 C -9.855469 -5.960938 -9.914062 -6.3125 -9.855469 -6.75 C -9.804688 -7.121094 -9.675781 -7.460938 -9.476562 -7.777344 C -9.265625 -8.09375 -9.039062 -8.386719 -8.761719 -8.660156 C -8.488281 -8.914062 -8.199219 -9.148438 -7.902344 -9.347656 C -7.601562 -9.546875 -7.324219 -9.699219 -7.066406 -9.835938 L -8.335938 -11.476562 C -9.402344 -10.796875 -10.183594 -10.0625 -10.699219 -9.273438 C -11.214844 -8.488281 -11.542969 -7.574219 -11.679688 -6.546875 C -11.78125 -5.773438 -11.734375 -5.082031 -11.574219 -4.496094 C -11.410156 -3.910156 -11.167969 -3.414062 -10.863281 -3.015625 C -10.542969 -2.597656 -10.1875 -2.292969 -9.808594 -2.070312 C -9.425781 -1.847656 -9.066406 -1.714844 -8.746094 -1.671875 C -8.074219 -1.585938 -7.480469 -1.660156 -6.953125 -1.898438 C -6.425781 -2.136719 -5.957031 -2.449219 -5.523438 -2.871094 C -5.09375 -3.277344 -4.710938 -3.722656 -4.371094 -4.226562 C -4.011719 -4.726562 -3.695312 -5.179688 -3.398438 -5.601562 C -3.105469 -6.027344 -2.816406 -6.382812 -2.558594 -6.65625 C -2.28125 -6.925781 -2.027344 -7.046875 -1.757812 -7.011719 Z M -1.757812 -7.011719 "/></g></g></g><g fill="#7ed957" fill-opacity="1"><g transform="translate(244.392156, 212.8454)"><g><path d="M -3.167969 -6.496094 C -2.933594 -6.515625 -2.71875 -6.410156 -2.535156 -6.203125 C -2.332031 -6 -2.222656 -5.683594 -2.1875 -5.242188 C -2.160156 -4.871094 -2.199219 -4.496094 -2.34375 -4.144531 C -2.46875 -3.792969 -2.628906 -3.457031 -2.84375 -3.152344 C -3.058594 -2.828125 -3.292969 -2.554688 -3.546875 -2.296875 C -3.796875 -2.039062 -4.054688 -1.816406 -4.277344 -1.648438 L -2.695312 -0.304688 C -2.21875 -0.75 -1.84375 -1.1875 -1.535156 -1.617188 C -1.230469 -2.050781 -0.992188 -2.492188 -0.820312 -2.949219 C -0.632812 -3.390625 -0.515625 -3.839844 -0.46875 -4.320312 C -0.402344 -4.800781 -0.40625 -5.296875 -0.445312 -5.820312 C -0.503906 -6.597656 -0.675781 -7.25 -0.953125 -7.789062 C -1.234375 -8.328125 -1.574219 -8.761719 -1.972656 -9.105469 C -2.355469 -9.433594 -2.765625 -9.675781 -3.183594 -9.8125 C -3.605469 -9.953125 -3.980469 -10.007812 -4.320312 -9.980469 C -4.980469 -9.929688 -5.542969 -9.734375 -6.011719 -9.394531 C -6.480469 -9.050781 -6.871094 -8.628906 -7.210938 -8.144531 C -7.546875 -7.640625 -7.828125 -7.125 -8.074219 -6.5625 C -8.304688 -6 -8.539062 -5.488281 -8.738281 -5.015625 C -8.941406 -4.523438 -9.132812 -4.132812 -9.34375 -3.8125 C -9.542969 -3.488281 -9.785156 -3.316406 -10.054688 -3.296875 C -10.273438 -3.28125 -10.484375 -3.367188 -10.6875 -3.589844 C -10.875 -3.796875 -11.003906 -4.125 -11.035156 -4.566406 C -11.066406 -4.9375 -11.007812 -5.300781 -10.882812 -5.652344 C -10.738281 -6.003906 -10.578125 -6.335938 -10.363281 -6.660156 C -10.148438 -6.964844 -9.914062 -7.257812 -9.664062 -7.515625 C -9.410156 -7.769531 -9.171875 -7.976562 -8.945312 -8.164062 L -10.53125 -9.507812 C -11.433594 -8.621094 -12.046875 -7.738281 -12.386719 -6.863281 C -12.726562 -5.984375 -12.859375 -5.023438 -12.777344 -3.992188 C -12.71875 -3.210938 -12.53125 -2.546875 -12.253906 -2.007812 C -11.972656 -1.464844 -11.632812 -1.03125 -11.25 -0.703125 C -10.851562 -0.359375 -10.441406 -0.136719 -10.023438 0 C -9.605469 0.140625 -9.226562 0.195312 -8.902344 0.171875 C -8.226562 0.121094 -7.664062 -0.078125 -7.195312 -0.417969 C -6.730469 -0.761719 -6.335938 -1.164062 -6 -1.667969 C -5.660156 -2.152344 -5.378906 -2.667969 -5.148438 -3.230469 C -4.902344 -3.792969 -4.6875 -4.304688 -4.484375 -4.777344 C -4.28125 -5.253906 -4.074219 -5.660156 -3.878906 -5.984375 C -3.664062 -6.304688 -3.441406 -6.476562 -3.167969 -6.496094 Z M -3.167969 -6.496094 "/></g></g></g></svg>